<svg xmlns="http://www.w3.org/2000/svg" width="720" height="420" viewBox="0 0 720 420" role="img" aria-label="SQLite: throughput vs consumers">
  <rect width="720" height="420" fill="#ffffff"/>
  <text x="80" y="28" font-size="22" font-weight="700" fill="#111827">SQLite: throughput vs consumers</text>
  <line x1="80" y1="364" x2="540" y2="364" stroke="#111827" stroke-width="1.5"/>
  <line x1="80" y1="54" x2="80" y2="364" stroke="#111827" stroke-width="1.5"/>
  <line x1="80" y1="364.0" x2="540" y2="364.0" stroke="#e5e7eb" stroke-width="1"/><text x="70" y="368.0" text-anchor="end" font-size="12" fill="#374151">0</text><line x1="80" y1="302.0" x2="540" y2="302.0" stroke="#e5e7eb" stroke-width="1"/><text x="70" y="306.0" text-anchor="end" font-size="12" fill="#374151">2,779</text><line x1="80" y1="240.0" x2="540" y2="240.0" stroke="#e5e7eb" stroke-width="1"/><text x="70" y="244.0" text-anchor="end" font-size="12" fill="#374151">5,557</text><line x1="80" y1="178.0" x2="540" y2="178.0" stroke="#e5e7eb" stroke-width="1"/><text x="70" y="182.0" text-anchor="end" font-size="12" fill="#374151">8,336</text><line x1="80" y1="116.0" x2="540" y2="116.0" stroke="#e5e7eb" stroke-width="1"/><text x="70" y="120.0" text-anchor="end" font-size="12" fill="#374151">11,115</text><line x1="80" y1="54.0" x2="540" y2="54.0" stroke="#e5e7eb" stroke-width="1"/><text x="70" y="58.0" text-anchor="end" font-size="12" fill="#374151">13,893</text>
  <line x1="80.0" y1="364" x2="80.0" y2="370" stroke="#6b7280" stroke-width="1"/><text x="80.0" y="388" text-anchor="middle" font-size="12" fill="#374151">1</text><line x1="310.0" y1="364" x2="310.0" y2="370" stroke="#6b7280" stroke-width="1"/><text x="310.0" y="388" text-anchor="middle" font-size="12" fill="#374151">2</text><line x1="540.0" y1="364" x2="540.0" y2="370" stroke="#6b7280" stroke-width="1"/><text x="540.0" y="388" text-anchor="middle" font-size="12" fill="#374151">4</text>
  <path d="M 80.0 358.2 L 310.0 358.2 L 540.0 358.5" fill="none" stroke="#1f77b4" stroke-width="3" stroke-linecap="round" stroke-linejoin="round"/><circle cx="80.0" cy="358.2" r="4" fill="#1f77b4"/><circle cx="310.0" cy="358.2" r="4" fill="#1f77b4"/><circle cx="540.0" cy="358.5" r="4" fill="#1f77b4"/><path d="M 80.0 303.6 L 310.0 308.4 L 540.0 309.9" fill="none" stroke="#ff7f0e" stroke-width="3" stroke-linecap="round" stroke-linejoin="round"/><circle cx="80.0" cy="303.6" r="4" fill="#ff7f0e"/><circle cx="310.0" cy="308.4" r="4" fill="#ff7f0e"/><circle cx="540.0" cy="309.9" r="4" fill="#ff7f0e"/><path d="M 80.0 82.2 L 310.0 109.4 L 540.0 113.4" fill="none" stroke="#2ca02c" stroke-width="3" stroke-linecap="round" stroke-linejoin="round"/><circle cx="80.0" cy="82.2" r="4" fill="#2ca02c"/><circle cx="310.0" cy="109.4" r="4" fill="#2ca02c"/><circle cx="540.0" cy="113.4" r="4" fill="#2ca02c"/>
  <line x1="560" y1="62.0" x2="584" y2="62.0" stroke="#1f77b4" stroke-width="3"/><text x="594" y="66.0" font-size="12" fill="#111827">Batch 1</text><line x1="560" y1="88.0" x2="584" y2="88.0" stroke="#ff7f0e" stroke-width="3"/><text x="594" y="92.0" font-size="12" fill="#111827">Batch 10</text><line x1="560" y1="114.0" x2="584" y2="114.0" stroke="#2ca02c" stroke-width="3"/><text x="594" y="118.0" font-size="12" fill="#111827">Batch 50</text>
  <text x="310.0" y="406" text-anchor="middle" font-size="13" fill="#111827">Consumers</text>
  <text x="22" y="209.0" text-anchor="middle" font-size="13" fill="#111827" transform="rotate(-90 22 209.0)">Throughput (msg/s)</text>
</svg>
